<mxfile host="app.diagrams.net" agent="Mozilla/5.0 (Windows NT 10.0; Win64; x64; rv:143.0) Gecko/20100101 Firefox/143.0" version="28.2.6" pages="4">
  <diagram name="UML" id="_R-KJ7h41IaCFOkq9BI9">
    <mxGraphModel dx="2066" dy="1139" grid="1" gridSize="10" guides="1" tooltips="1" connect="1" arrows="1" fold="1" page="1" pageScale="1" pageWidth="850" pageHeight="1100" math="0" shadow="0">
      <root>
        <mxCell id="0" />
        <mxCell id="1" parent="0" />
        <mxCell id="3XzFGxr-biG4mYpELUGO-1" value="&lt;p style=&quot;margin:0px;margin-top:4px;text-align:center;&quot;&gt;&lt;b&gt;VideoGame&lt;/b&gt;&lt;/p&gt;&lt;hr size=&quot;1&quot; style=&quot;border-style:solid;&quot;&gt;&lt;p style=&quot;margin:0px;margin-left:4px;&quot;&gt;- title : string&lt;/p&gt;&lt;hr size=&quot;1&quot; style=&quot;border-style:solid;&quot;&gt;&lt;p style=&quot;margin:0px;margin-left:4px;&quot;&gt;+ getDealInformation() : DealInformation[]&lt;/p&gt;&lt;p style=&quot;margin:0px;margin-left:4px;&quot;&gt;+ validateDealInfo() : void&amp;nbsp;&lt;/p&gt;" style="verticalAlign=top;align=left;overflow=fill;html=1;whiteSpace=wrap;" parent="1" vertex="1">
          <mxGeometry x="460" y="135" width="240" height="150" as="geometry" />
        </mxCell>
        <mxCell id="3XzFGxr-biG4mYpELUGO-2" value="&lt;p style=&quot;margin:0px;margin-top:4px;text-align:center;&quot;&gt;&lt;b&gt;User&lt;/b&gt;&lt;/p&gt;&lt;hr size=&quot;1&quot; style=&quot;border-style:solid;&quot;&gt;&lt;p style=&quot;margin:0px;margin-left:4px;&quot;&gt;- username : string&lt;/p&gt;&lt;p style=&quot;margin:0px;margin-left:4px;&quot;&gt;- password : string&lt;/p&gt;&lt;hr size=&quot;1&quot; style=&quot;border-style:solid;&quot;&gt;&lt;p style=&quot;margin:0px;margin-left:4px;&quot;&gt;+ getWishList() :&amp;nbsp; Wishlist&lt;/p&gt;" style="verticalAlign=top;align=left;overflow=fill;html=1;whiteSpace=wrap;" parent="1" vertex="1">
          <mxGeometry x="135" y="400" width="180" height="110" as="geometry" />
        </mxCell>
        <mxCell id="3XzFGxr-biG4mYpELUGO-3" value="&lt;p style=&quot;margin:0px;margin-top:4px;text-align:center;&quot;&gt;&lt;b&gt;Wishlist&lt;/b&gt;&lt;/p&gt;&lt;hr size=&quot;1&quot; style=&quot;border-style:solid;&quot;&gt;&lt;p style=&quot;margin:0px;margin-left:4px;&quot;&gt;+ field: Type&lt;/p&gt;&lt;hr size=&quot;1&quot; style=&quot;border-style:solid;&quot;&gt;&lt;p style=&quot;margin:0px;margin-left:4px;&quot;&gt;+ addVideoGame(string) : void&lt;/p&gt;&lt;p style=&quot;margin:0px;margin-left:4px;&quot;&gt;+ removeVideoGame(string) : void&lt;/p&gt;&lt;p style=&quot;margin:0px;margin-left:4px;&quot;&gt;+ getVideoGames() : VideoGame[]&lt;/p&gt;" style="verticalAlign=top;align=left;overflow=fill;html=1;whiteSpace=wrap;" parent="1" vertex="1">
          <mxGeometry x="120" y="130" width="210" height="160" as="geometry" />
        </mxCell>
        <mxCell id="3XzFGxr-biG4mYpELUGO-4" value="&lt;p style=&quot;margin:0px;margin-top:4px;text-align:center;&quot;&gt;&lt;b&gt;Storefront&lt;/b&gt;&lt;/p&gt;&lt;hr size=&quot;1&quot; style=&quot;border-style:solid;&quot;&gt;&lt;p style=&quot;margin:0px;margin-left:4px;&quot;&gt;- name : string&lt;/p&gt;&lt;p style=&quot;margin:0px;margin-left:4px;&quot;&gt;- url : string&lt;/p&gt;&lt;p style=&quot;margin:0px;margin-left:4px;&quot;&gt;- platform : string&lt;/p&gt;&lt;hr size=&quot;1&quot; style=&quot;border-style:solid;&quot;&gt;" style="verticalAlign=top;align=left;overflow=fill;html=1;whiteSpace=wrap;" parent="1" vertex="1">
          <mxGeometry x="559" y="630" width="160" height="90" as="geometry" />
        </mxCell>
        <mxCell id="3XzFGxr-biG4mYpELUGO-5" value="&lt;p style=&quot;margin:0px;margin-top:4px;text-align:center;&quot;&gt;&lt;b&gt;DealInformation&lt;/b&gt;&lt;/p&gt;&lt;hr size=&quot;1&quot; style=&quot;border-style:solid;&quot;&gt;&lt;p style=&quot;margin:0px;margin-left:4px;&quot;&gt;- originalPrice : float&lt;/p&gt;&lt;p style=&quot;margin:0px;margin-left:4px;&quot;&gt;- discountPrice : float&lt;/p&gt;&lt;p style=&quot;margin:0px;margin-left:4px;&quot;&gt;- lowestPrice : float&lt;/p&gt;&lt;p style=&quot;margin:0px;margin-left:4px;&quot;&gt;- dealEndDate : Date&lt;/p&gt;&lt;hr size=&quot;1&quot; style=&quot;border-style:solid;&quot;&gt;&lt;p style=&quot;margin:0px;margin-left:4px;&quot;&gt;+ updateDeal(string) : bool&amp;nbsp;&lt;/p&gt;" style="verticalAlign=top;align=left;overflow=fill;html=1;whiteSpace=wrap;" parent="1" vertex="1">
          <mxGeometry x="559" y="360" width="160" height="150" as="geometry" />
        </mxCell>
        <mxCell id="3XzFGxr-biG4mYpELUGO-10" value="" style="endArrow=diamondThin;endFill=0;endSize=24;html=1;rounded=0;exitX=0.5;exitY=0;exitDx=0;exitDy=0;entryX=0.5;entryY=1;entryDx=0;entryDy=0;" parent="1" source="3XzFGxr-biG4mYpELUGO-4" target="3XzFGxr-biG4mYpELUGO-5" edge="1">
          <mxGeometry width="160" relative="1" as="geometry">
            <mxPoint x="309" y="480" as="sourcePoint" />
            <mxPoint x="629" y="530" as="targetPoint" />
          </mxGeometry>
        </mxCell>
        <mxCell id="3XzFGxr-biG4mYpELUGO-11" value="1" style="edgeLabel;html=1;align=center;verticalAlign=middle;resizable=0;points=[];" parent="3XzFGxr-biG4mYpELUGO-10" vertex="1" connectable="0">
          <mxGeometry x="0.63" y="-5" relative="1" as="geometry">
            <mxPoint x="15" as="offset" />
          </mxGeometry>
        </mxCell>
        <mxCell id="3XzFGxr-biG4mYpELUGO-12" value="1" style="edgeLabel;html=1;align=center;verticalAlign=middle;resizable=0;points=[];" parent="3XzFGxr-biG4mYpELUGO-10" vertex="1" connectable="0">
          <mxGeometry x="-0.7033" y="-3" relative="1" as="geometry">
            <mxPoint x="17" as="offset" />
          </mxGeometry>
        </mxCell>
        <mxCell id="3XzFGxr-biG4mYpELUGO-13" value="" style="endArrow=diamondThin;endFill=0;endSize=24;html=1;rounded=0;entryX=0.5;entryY=1;entryDx=0;entryDy=0;exitX=0;exitY=0.5;exitDx=0;exitDy=0;" parent="1" source="3XzFGxr-biG4mYpELUGO-4" target="3XzFGxr-biG4mYpELUGO-2" edge="1">
          <mxGeometry width="160" relative="1" as="geometry">
            <mxPoint x="290" y="480" as="sourcePoint" />
            <mxPoint x="450" y="480" as="targetPoint" />
            <Array as="points">
              <mxPoint x="225" y="680" />
            </Array>
          </mxGeometry>
        </mxCell>
        <mxCell id="3XzFGxr-biG4mYpELUGO-14" value="1" style="edgeLabel;html=1;align=center;verticalAlign=middle;resizable=0;points=[];" parent="3XzFGxr-biG4mYpELUGO-13" vertex="1" connectable="0">
          <mxGeometry x="0.8872" y="-3" relative="1" as="geometry">
            <mxPoint x="12" as="offset" />
          </mxGeometry>
        </mxCell>
        <mxCell id="3XzFGxr-biG4mYpELUGO-15" value="1..*" style="edgeLabel;html=1;align=center;verticalAlign=middle;resizable=0;points=[];" parent="3XzFGxr-biG4mYpELUGO-13" vertex="1" connectable="0">
          <mxGeometry x="-0.8632" y="1" relative="1" as="geometry">
            <mxPoint x="14" y="-27" as="offset" />
          </mxGeometry>
        </mxCell>
        <mxCell id="3XzFGxr-biG4mYpELUGO-16" value="" style="endArrow=diamondThin;endFill=1;endSize=24;html=1;rounded=0;entryX=0.5;entryY=0;entryDx=0;entryDy=0;exitX=0.5;exitY=1;exitDx=0;exitDy=0;" parent="1" source="3XzFGxr-biG4mYpELUGO-3" target="3XzFGxr-biG4mYpELUGO-2" edge="1">
          <mxGeometry width="160" relative="1" as="geometry">
            <mxPoint x="20" y="340" as="sourcePoint" />
            <mxPoint x="180" y="340" as="targetPoint" />
          </mxGeometry>
        </mxCell>
        <mxCell id="3XzFGxr-biG4mYpELUGO-17" value="1" style="edgeLabel;html=1;align=center;verticalAlign=middle;resizable=0;points=[];" parent="3XzFGxr-biG4mYpELUGO-16" vertex="1" connectable="0">
          <mxGeometry x="-0.6691" y="4" relative="1" as="geometry">
            <mxPoint as="offset" />
          </mxGeometry>
        </mxCell>
        <mxCell id="3XzFGxr-biG4mYpELUGO-18" value="1" style="edgeLabel;html=1;align=center;verticalAlign=middle;resizable=0;points=[];" parent="3XzFGxr-biG4mYpELUGO-16" vertex="1" connectable="0">
          <mxGeometry x="0.2764" y="4" relative="1" as="geometry">
            <mxPoint as="offset" />
          </mxGeometry>
        </mxCell>
        <mxCell id="3XzFGxr-biG4mYpELUGO-19" value="" style="endArrow=diamondThin;endFill=0;endSize=24;html=1;rounded=0;entryX=1;entryY=0.5;entryDx=0;entryDy=0;exitX=0;exitY=0.5;exitDx=0;exitDy=0;" parent="1" source="3XzFGxr-biG4mYpELUGO-1" target="3XzFGxr-biG4mYpELUGO-3" edge="1">
          <mxGeometry width="160" relative="1" as="geometry">
            <mxPoint x="290" y="480" as="sourcePoint" />
            <mxPoint x="450" y="480" as="targetPoint" />
          </mxGeometry>
        </mxCell>
        <mxCell id="3XzFGxr-biG4mYpELUGO-20" value="1" style="edgeLabel;html=1;align=center;verticalAlign=middle;resizable=0;points=[];" parent="3XzFGxr-biG4mYpELUGO-19" vertex="1" connectable="0">
          <mxGeometry x="0.5569" y="-3" relative="1" as="geometry">
            <mxPoint as="offset" />
          </mxGeometry>
        </mxCell>
        <mxCell id="3XzFGxr-biG4mYpELUGO-21" value="1..*" style="edgeLabel;html=1;align=center;verticalAlign=middle;resizable=0;points=[];" parent="3XzFGxr-biG4mYpELUGO-19" vertex="1" connectable="0">
          <mxGeometry x="-0.7662" y="-2" relative="1" as="geometry">
            <mxPoint as="offset" />
          </mxGeometry>
        </mxCell>
        <mxCell id="3XzFGxr-biG4mYpELUGO-22" value="" style="endArrow=diamondThin;endFill=1;endSize=24;html=1;rounded=0;entryX=0.75;entryY=1;entryDx=0;entryDy=0;exitX=0.5;exitY=0;exitDx=0;exitDy=0;" parent="1" source="3XzFGxr-biG4mYpELUGO-5" target="3XzFGxr-biG4mYpELUGO-1" edge="1">
          <mxGeometry width="160" relative="1" as="geometry">
            <mxPoint x="290" y="480" as="sourcePoint" />
            <mxPoint x="450" y="480" as="targetPoint" />
          </mxGeometry>
        </mxCell>
        <mxCell id="3XzFGxr-biG4mYpELUGO-23" value="1" style="edgeLabel;html=1;align=center;verticalAlign=middle;resizable=0;points=[];" parent="3XzFGxr-biG4mYpELUGO-22" vertex="1" connectable="0">
          <mxGeometry x="0.4084" y="-1" relative="1" as="geometry">
            <mxPoint x="9" as="offset" />
          </mxGeometry>
        </mxCell>
        <mxCell id="3XzFGxr-biG4mYpELUGO-24" value="1..*" style="edgeLabel;html=1;align=center;verticalAlign=middle;resizable=0;points=[];" parent="3XzFGxr-biG4mYpELUGO-22" vertex="1" connectable="0">
          <mxGeometry x="-0.6847" y="-2" relative="1" as="geometry">
            <mxPoint x="9" as="offset" />
          </mxGeometry>
        </mxCell>
      </root>
    </mxGraphModel>
  </diagram>
  <diagram id="jWRomK6k2IHI1Ht5jOD6" name="Signup Sequence">
    <mxGraphModel dx="2066" dy="1139" grid="1" gridSize="10" guides="1" tooltips="1" connect="1" arrows="1" fold="1" page="1" pageScale="1" pageWidth="850" pageHeight="1100" math="0" shadow="0">
      <root>
        <mxCell id="0" />
        <mxCell id="1" parent="0" />
        <mxCell id="mQIX1aCsBJTwRMguu7EN-2" value="&lt;div&gt;Front End&lt;/div&gt;" style="shape=umlLifeline;perimeter=lifelinePerimeter;whiteSpace=wrap;html=1;container=1;dropTarget=0;collapsible=0;recursiveResize=0;outlineConnect=0;portConstraint=eastwest;newEdgeStyle={&quot;curved&quot;:0,&quot;rounded&quot;:0};" vertex="1" parent="1">
          <mxGeometry x="365" y="230" width="100" height="720" as="geometry" />
        </mxCell>
        <mxCell id="mQIX1aCsBJTwRMguu7EN-3" value="&lt;div&gt;Back End&lt;/div&gt;" style="shape=umlLifeline;perimeter=lifelinePerimeter;whiteSpace=wrap;html=1;container=1;dropTarget=0;collapsible=0;recursiveResize=0;outlineConnect=0;portConstraint=eastwest;newEdgeStyle={&quot;curved&quot;:0,&quot;rounded&quot;:0};" vertex="1" parent="1">
          <mxGeometry x="625" y="230" width="100" height="720" as="geometry" />
        </mxCell>
        <mxCell id="mQIX1aCsBJTwRMguu7EN-8" value="Signup" style="html=1;verticalAlign=bottom;endArrow=block;curved=0;rounded=0;" edge="1" parent="1">
          <mxGeometry width="80" relative="1" as="geometry">
            <mxPoint x="224.5" y="320" as="sourcePoint" />
            <mxPoint x="414.5" y="320" as="targetPoint" />
          </mxGeometry>
        </mxCell>
        <mxCell id="mQIX1aCsBJTwRMguu7EN-9" value="" style="shape=umlLifeline;perimeter=lifelinePerimeter;whiteSpace=wrap;html=1;container=1;dropTarget=0;collapsible=0;recursiveResize=0;outlineConnect=0;portConstraint=eastwest;newEdgeStyle={&quot;curved&quot;:0,&quot;rounded&quot;:0};participant=umlActor;" vertex="1" parent="1">
          <mxGeometry x="215" y="230" width="20" height="720" as="geometry" />
        </mxCell>
        <mxCell id="mQIX1aCsBJTwRMguu7EN-12" value="&lt;div&gt;Post signup details&lt;/div&gt;" style="html=1;verticalAlign=bottom;endArrow=block;curved=0;rounded=0;" edge="1" parent="1">
          <mxGeometry width="80" relative="1" as="geometry">
            <mxPoint x="414.5" y="440" as="sourcePoint" />
            <mxPoint x="674.5" y="440" as="targetPoint" />
          </mxGeometry>
        </mxCell>
        <mxCell id="1FruBVIg77XsN306AQsJ-1" value="Send error message" style="html=1;verticalAlign=bottom;endArrow=open;dashed=1;endSize=8;curved=0;rounded=0;" edge="1" parent="1" target="gf98v1N_3wBuKZ39hatH-2">
          <mxGeometry relative="1" as="geometry">
            <mxPoint x="674.5" y="500" as="sourcePoint" />
            <mxPoint x="414.5" y="500" as="targetPoint" />
            <Array as="points">
              <mxPoint x="455.5" y="500" />
            </Array>
          </mxGeometry>
        </mxCell>
        <mxCell id="1FruBVIg77XsN306AQsJ-3" value="display error message" style="html=1;verticalAlign=bottom;endArrow=open;dashed=1;endSize=8;curved=0;rounded=0;" edge="1" parent="1">
          <mxGeometry relative="1" as="geometry">
            <mxPoint x="414.5" y="370" as="sourcePoint" />
            <mxPoint x="224.5" y="370" as="targetPoint" />
          </mxGeometry>
        </mxCell>
        <mxCell id="1FruBVIg77XsN306AQsJ-4" value="Display error message" style="html=1;verticalAlign=bottom;endArrow=open;dashed=1;endSize=8;curved=0;rounded=0;" edge="1" parent="1">
          <mxGeometry relative="1" as="geometry">
            <mxPoint x="414.5" y="520" as="sourcePoint" />
            <mxPoint x="224.5" y="520" as="targetPoint" />
          </mxGeometry>
        </mxCell>
        <mxCell id="1FruBVIg77XsN306AQsJ-5" value="&lt;div&gt;Create user and redirect to&amp;nbsp;&lt;/div&gt;&lt;div&gt;store selection page&lt;/div&gt;" style="html=1;verticalAlign=bottom;endArrow=open;dashed=1;endSize=8;curved=0;rounded=0;" edge="1" parent="1" target="gf98v1N_3wBuKZ39hatH-2">
          <mxGeometry relative="1" as="geometry">
            <mxPoint x="674.5" y="690" as="sourcePoint" />
            <mxPoint x="414.5" y="690" as="targetPoint" />
          </mxGeometry>
        </mxCell>
        <mxCell id="1FruBVIg77XsN306AQsJ-6" value="&lt;div&gt;Display store selection page&lt;/div&gt;" style="html=1;verticalAlign=bottom;endArrow=open;dashed=1;endSize=8;curved=0;rounded=0;" edge="1" parent="1">
          <mxGeometry relative="1" as="geometry">
            <mxPoint x="414.5" y="710" as="sourcePoint" />
            <mxPoint x="224.5" y="710" as="targetPoint" />
          </mxGeometry>
        </mxCell>
        <mxCell id="1FruBVIg77XsN306AQsJ-7" value="Send selected stores" style="html=1;verticalAlign=bottom;endArrow=block;curved=0;rounded=0;" edge="1" parent="1">
          <mxGeometry width="80" relative="1" as="geometry">
            <mxPoint x="224.5" y="790" as="sourcePoint" />
            <mxPoint x="414.5" y="790" as="targetPoint" />
          </mxGeometry>
        </mxCell>
        <mxCell id="1FruBVIg77XsN306AQsJ-8" value="&lt;div&gt;POST selected stores&lt;/div&gt;" style="html=1;verticalAlign=bottom;endArrow=block;curved=0;rounded=0;" edge="1" parent="1">
          <mxGeometry width="80" relative="1" as="geometry">
            <mxPoint x="414.5" y="810" as="sourcePoint" />
            <mxPoint x="674.5" y="810" as="targetPoint" />
          </mxGeometry>
        </mxCell>
        <mxCell id="1FruBVIg77XsN306AQsJ-11" value="&lt;div&gt;Save selected stores and&lt;/div&gt;&lt;div&gt;redirect to landing page&lt;/div&gt;" style="html=1;verticalAlign=bottom;endArrow=open;dashed=1;endSize=8;curved=0;rounded=0;" edge="1" parent="1" target="gf98v1N_3wBuKZ39hatH-2">
          <mxGeometry relative="1" as="geometry">
            <mxPoint x="674.5" y="850" as="sourcePoint" />
            <mxPoint x="414.5" y="850" as="targetPoint" />
          </mxGeometry>
        </mxCell>
        <mxCell id="1FruBVIg77XsN306AQsJ-12" value="&lt;div&gt;Display landing page&lt;/div&gt;" style="html=1;verticalAlign=bottom;endArrow=open;dashed=1;endSize=8;curved=0;rounded=0;" edge="1" parent="1">
          <mxGeometry relative="1" as="geometry">
            <mxPoint x="414.5" y="880" as="sourcePoint" />
            <mxPoint x="224.5" y="880" as="targetPoint" />
          </mxGeometry>
        </mxCell>
        <mxCell id="1FruBVIg77XsN306AQsJ-14" value="alt" style="shape=umlFrame;whiteSpace=wrap;html=1;pointerEvents=0;" vertex="1" parent="1">
          <mxGeometry x="55" y="330" width="720" height="600" as="geometry" />
        </mxCell>
        <mxCell id="1FruBVIg77XsN306AQsJ-15" value="&lt;div&gt;if account info is invalid&lt;/div&gt;" style="text;html=1;whiteSpace=wrap;strokeColor=none;fillColor=none;align=center;verticalAlign=middle;rounded=0;" vertex="1" parent="1">
          <mxGeometry x="125" y="350" width="60" height="30" as="geometry" />
        </mxCell>
        <mxCell id="1FruBVIg77XsN306AQsJ-17" value="" style="line;strokeWidth=1;fillColor=none;align=left;verticalAlign=middle;spacingTop=-1;spacingLeft=3;spacingRight=3;rotatable=0;labelPosition=right;points=[];portConstraint=eastwest;strokeColor=inherit;" vertex="1" parent="1">
          <mxGeometry x="65" y="400" width="710" height="8" as="geometry" />
        </mxCell>
        <mxCell id="1FruBVIg77XsN306AQsJ-19" value="alt" style="shape=umlFrame;whiteSpace=wrap;html=1;pointerEvents=0;" vertex="1" parent="1">
          <mxGeometry x="85" y="480" width="640" height="430" as="geometry" />
        </mxCell>
        <mxCell id="1FruBVIg77XsN306AQsJ-23" style="edgeStyle=orthogonalEdgeStyle;rounded=0;orthogonalLoop=1;jettySize=auto;html=1;exitX=0.5;exitY=1;exitDx=0;exitDy=0;" edge="1" parent="1" source="1FruBVIg77XsN306AQsJ-15" target="1FruBVIg77XsN306AQsJ-15">
          <mxGeometry relative="1" as="geometry" />
        </mxCell>
        <mxCell id="1FruBVIg77XsN306AQsJ-24" value="else" style="text;html=1;whiteSpace=wrap;strokeColor=none;fillColor=none;align=center;verticalAlign=middle;rounded=0;" vertex="1" parent="1">
          <mxGeometry x="65" y="420" width="60" height="30" as="geometry" />
        </mxCell>
        <mxCell id="1FruBVIg77XsN306AQsJ-25" value="if user creation failed" style="text;html=1;whiteSpace=wrap;strokeColor=none;fillColor=none;align=center;verticalAlign=middle;rounded=0;" vertex="1" parent="1">
          <mxGeometry x="85" y="510" width="120" height="30" as="geometry" />
        </mxCell>
        <mxCell id="1FruBVIg77XsN306AQsJ-27" value="" style="line;strokeWidth=1;fillColor=none;align=left;verticalAlign=middle;spacingTop=-1;spacingLeft=3;spacingRight=3;rotatable=0;labelPosition=right;points=[];portConstraint=eastwest;strokeColor=inherit;" vertex="1" parent="1">
          <mxGeometry x="85" y="570" width="640" height="8" as="geometry" />
        </mxCell>
        <mxCell id="1FruBVIg77XsN306AQsJ-28" value="else" style="text;html=1;whiteSpace=wrap;strokeColor=none;fillColor=none;align=center;verticalAlign=middle;rounded=0;" vertex="1" parent="1">
          <mxGeometry x="95" y="610" width="60" height="30" as="geometry" />
        </mxCell>
        <mxCell id="1FruBVIg77XsN306AQsJ-34" value="User Signup" style="shape=umlFrame;whiteSpace=wrap;html=1;pointerEvents=0;" vertex="1" parent="1">
          <mxGeometry x="30" y="130" width="780" height="890" as="geometry" />
        </mxCell>
        <mxCell id="gf98v1N_3wBuKZ39hatH-1" value="" style="html=1;points=[[0,0,0,0,5],[0,1,0,0,-5],[1,0,0,0,5],[1,1,0,0,-5]];perimeter=orthogonalPerimeter;outlineConnect=0;targetShapes=umlLifeline;portConstraint=eastwest;newEdgeStyle={&quot;curved&quot;:0,&quot;rounded&quot;:0};" vertex="1" parent="1">
          <mxGeometry x="675" y="430" width="10" height="430" as="geometry" />
        </mxCell>
        <mxCell id="gf98v1N_3wBuKZ39hatH-2" value="" style="html=1;points=[[0,0,0,0,5],[0,1,0,0,-5],[1,0,0,0,5],[1,1,0,0,-5]];perimeter=orthogonalPerimeter;outlineConnect=0;targetShapes=umlLifeline;portConstraint=eastwest;newEdgeStyle={&quot;curved&quot;:0,&quot;rounded&quot;:0};" vertex="1" parent="1">
          <mxGeometry x="415" y="320" width="10" height="570" as="geometry" />
        </mxCell>
      </root>
    </mxGraphModel>
  </diagram>
  <diagram id="v6lxTcYa2RrQ5DVgq4tP" name="Wishlist Entry">
    <mxGraphModel dx="2066" dy="1139" grid="1" gridSize="10" guides="1" tooltips="1" connect="1" arrows="1" fold="1" page="1" pageScale="1" pageWidth="850" pageHeight="1100" math="0" shadow="0">
      <root>
        <mxCell id="0" />
        <mxCell id="1" parent="0" />
        <mxCell id="JWyXyakCNRZdzn6df_iQ-1" value="" style="shape=umlLifeline;perimeter=lifelinePerimeter;whiteSpace=wrap;html=1;container=1;dropTarget=0;collapsible=0;recursiveResize=0;outlineConnect=0;portConstraint=eastwest;newEdgeStyle={&quot;curved&quot;:0,&quot;rounded&quot;:0};participant=umlActor;" vertex="1" parent="1">
          <mxGeometry x="150" y="350" width="20" height="620" as="geometry" />
        </mxCell>
        <mxCell id="JWyXyakCNRZdzn6df_iQ-2" value="&lt;div&gt;Front End&lt;/div&gt;" style="shape=umlLifeline;perimeter=lifelinePerimeter;whiteSpace=wrap;html=1;container=1;dropTarget=0;collapsible=0;recursiveResize=0;outlineConnect=0;portConstraint=eastwest;newEdgeStyle={&quot;curved&quot;:0,&quot;rounded&quot;:0};" vertex="1" parent="1">
          <mxGeometry x="280" y="350" width="100" height="620" as="geometry" />
        </mxCell>
        <mxCell id="JWyXyakCNRZdzn6df_iQ-22" value="" style="html=1;points=[[0,0,0,0,5],[0,1,0,0,-5],[1,0,0,0,5],[1,1,0,0,-5]];perimeter=orthogonalPerimeter;outlineConnect=0;targetShapes=umlLifeline;portConstraint=eastwest;newEdgeStyle={&quot;curved&quot;:0,&quot;rounded&quot;:0};" vertex="1" parent="JWyXyakCNRZdzn6df_iQ-2">
          <mxGeometry x="50" y="110" width="10" height="470" as="geometry" />
        </mxCell>
        <mxCell id="JWyXyakCNRZdzn6df_iQ-3" value="Back End" style="shape=umlLifeline;perimeter=lifelinePerimeter;whiteSpace=wrap;html=1;container=1;dropTarget=0;collapsible=0;recursiveResize=0;outlineConnect=0;portConstraint=eastwest;newEdgeStyle={&quot;curved&quot;:0,&quot;rounded&quot;:0};" vertex="1" parent="1">
          <mxGeometry x="480" y="350" width="100" height="620" as="geometry" />
        </mxCell>
        <mxCell id="JWyXyakCNRZdzn6df_iQ-23" value="" style="html=1;points=[[0,0,0,0,5],[0,1,0,0,-5],[1,0,0,0,5],[1,1,0,0,-5]];perimeter=orthogonalPerimeter;outlineConnect=0;targetShapes=umlLifeline;portConstraint=eastwest;newEdgeStyle={&quot;curved&quot;:0,&quot;rounded&quot;:0};" vertex="1" parent="JWyXyakCNRZdzn6df_iQ-3">
          <mxGeometry x="50" y="140" width="10" height="400" as="geometry" />
        </mxCell>
        <mxCell id="JWyXyakCNRZdzn6df_iQ-4" value="Store Scraper" style="shape=umlLifeline;perimeter=lifelinePerimeter;whiteSpace=wrap;html=1;container=1;dropTarget=0;collapsible=0;recursiveResize=0;outlineConnect=0;portConstraint=eastwest;newEdgeStyle={&quot;curved&quot;:0,&quot;rounded&quot;:0};" vertex="1" parent="1">
          <mxGeometry x="680" y="350" width="100" height="620" as="geometry" />
        </mxCell>
        <mxCell id="JWyXyakCNRZdzn6df_iQ-24" value="" style="html=1;points=[[0,0,0,0,5],[0,1,0,0,-5],[1,0,0,0,5],[1,1,0,0,-5]];perimeter=orthogonalPerimeter;outlineConnect=0;targetShapes=umlLifeline;portConstraint=eastwest;newEdgeStyle={&quot;curved&quot;:0,&quot;rounded&quot;:0};" vertex="1" parent="JWyXyakCNRZdzn6df_iQ-4">
          <mxGeometry x="50" y="200" width="10" height="250" as="geometry" />
        </mxCell>
        <mxCell id="JWyXyakCNRZdzn6df_iQ-5" value="Input game to add" style="html=1;verticalAlign=bottom;endArrow=block;curved=0;rounded=0;" edge="1" parent="1">
          <mxGeometry width="80" relative="1" as="geometry">
            <mxPoint x="159.5" y="460" as="sourcePoint" />
            <mxPoint x="329.5" y="460" as="targetPoint" />
            <mxPoint as="offset" />
          </mxGeometry>
        </mxCell>
        <mxCell id="JWyXyakCNRZdzn6df_iQ-6" value="POST request with game name" style="html=1;verticalAlign=bottom;endArrow=block;curved=0;rounded=0;" edge="1" parent="1">
          <mxGeometry width="80" relative="1" as="geometry">
            <mxPoint x="329.5" y="490" as="sourcePoint" />
            <mxPoint x="529.5" y="490" as="targetPoint" />
          </mxGeometry>
        </mxCell>
        <mxCell id="JWyXyakCNRZdzn6df_iQ-7" value="Request store for game info" style="html=1;verticalAlign=bottom;endArrow=block;curved=0;rounded=0;" edge="1" parent="1">
          <mxGeometry width="80" relative="1" as="geometry">
            <mxPoint x="529.5" y="550" as="sourcePoint" />
            <mxPoint x="729.5" y="550" as="targetPoint" />
          </mxGeometry>
        </mxCell>
        <mxCell id="JWyXyakCNRZdzn6df_iQ-8" value="Request failed" style="html=1;verticalAlign=bottom;endArrow=open;dashed=1;endSize=8;curved=0;rounded=0;" edge="1" parent="1">
          <mxGeometry relative="1" as="geometry">
            <mxPoint x="729.5" y="610" as="sourcePoint" />
            <mxPoint x="529.5" y="610" as="targetPoint" />
          </mxGeometry>
        </mxCell>
        <mxCell id="JWyXyakCNRZdzn6df_iQ-9" value="" style="html=1;verticalAlign=bottom;endArrow=open;dashed=1;endSize=8;curved=0;rounded=0;" edge="1" parent="1">
          <mxGeometry relative="1" as="geometry">
            <mxPoint x="529.5" y="650" as="sourcePoint" />
            <mxPoint x="329.5" y="650" as="targetPoint" />
          </mxGeometry>
        </mxCell>
        <mxCell id="JWyXyakCNRZdzn6df_iQ-10" value="Send error message" style="edgeLabel;html=1;align=center;verticalAlign=middle;resizable=0;points=[];" vertex="1" connectable="0" parent="JWyXyakCNRZdzn6df_iQ-9">
          <mxGeometry x="-0.071" y="-4" relative="1" as="geometry">
            <mxPoint as="offset" />
          </mxGeometry>
        </mxCell>
        <mxCell id="JWyXyakCNRZdzn6df_iQ-11" value="Display error message" style="html=1;verticalAlign=bottom;endArrow=open;dashed=1;endSize=8;curved=0;rounded=0;" edge="1" parent="1">
          <mxGeometry relative="1" as="geometry">
            <mxPoint x="329.5" y="700" as="sourcePoint" />
            <mxPoint x="159.5" y="700" as="targetPoint" />
          </mxGeometry>
        </mxCell>
        <mxCell id="JWyXyakCNRZdzn6df_iQ-12" value="Game info" style="html=1;verticalAlign=bottom;endArrow=open;dashed=1;endSize=8;curved=0;rounded=0;" edge="1" parent="1">
          <mxGeometry relative="1" as="geometry">
            <mxPoint x="729.5" y="790" as="sourcePoint" />
            <mxPoint x="529.5" y="790" as="targetPoint" />
          </mxGeometry>
        </mxCell>
        <mxCell id="JWyXyakCNRZdzn6df_iQ-14" value="Store game info" style="html=1;align=left;spacingLeft=2;endArrow=block;rounded=0;edgeStyle=orthogonalEdgeStyle;curved=0;rounded=0;" edge="1" parent="1">
          <mxGeometry relative="1" as="geometry">
            <mxPoint x="529.5" y="820" as="sourcePoint" />
            <Array as="points">
              <mxPoint x="590" y="820" />
              <mxPoint x="590" y="850" />
            </Array>
            <mxPoint x="529.5" y="850" as="targetPoint" />
          </mxGeometry>
        </mxCell>
        <mxCell id="JWyXyakCNRZdzn6df_iQ-15" value="Game info" style="html=1;verticalAlign=bottom;endArrow=open;dashed=1;endSize=8;curved=0;rounded=0;" edge="1" parent="1">
          <mxGeometry relative="1" as="geometry">
            <mxPoint x="530" y="880" as="sourcePoint" />
            <mxPoint x="329.5" y="880" as="targetPoint" />
          </mxGeometry>
        </mxCell>
        <mxCell id="JWyXyakCNRZdzn6df_iQ-16" value="Display game info" style="html=1;verticalAlign=bottom;endArrow=open;dashed=1;endSize=8;curved=0;rounded=0;" edge="1" parent="1">
          <mxGeometry relative="1" as="geometry">
            <mxPoint x="329.5" y="920" as="sourcePoint" />
            <mxPoint x="159.5" y="920" as="targetPoint" />
          </mxGeometry>
        </mxCell>
        <mxCell id="JWyXyakCNRZdzn6df_iQ-18" value="Alt" style="shape=umlFrame;whiteSpace=wrap;html=1;pointerEvents=0;" vertex="1" parent="1">
          <mxGeometry x="60" y="580" width="740" height="360" as="geometry" />
        </mxCell>
        <mxCell id="JWyXyakCNRZdzn6df_iQ-19" value="&lt;div&gt;If store&lt;/div&gt;&lt;div&gt;request&lt;/div&gt;&lt;div&gt;failed&lt;/div&gt;" style="text;html=1;whiteSpace=wrap;strokeColor=none;fillColor=none;align=center;verticalAlign=middle;rounded=0;" vertex="1" parent="1">
          <mxGeometry x="80" y="630" width="60" height="30" as="geometry" />
        </mxCell>
        <mxCell id="JWyXyakCNRZdzn6df_iQ-20" value="Else" style="text;html=1;whiteSpace=wrap;strokeColor=none;fillColor=none;align=center;verticalAlign=middle;rounded=0;" vertex="1" parent="1">
          <mxGeometry x="80" y="770" width="60" height="30" as="geometry" />
        </mxCell>
        <mxCell id="JWyXyakCNRZdzn6df_iQ-21" value="" style="line;strokeWidth=1;fillColor=none;align=left;verticalAlign=middle;spacingTop=-1;spacingLeft=3;spacingRight=3;rotatable=0;labelPosition=right;points=[];portConstraint=eastwest;strokeColor=inherit;" vertex="1" parent="1">
          <mxGeometry x="50" y="740" width="740" height="8" as="geometry" />
        </mxCell>
        <mxCell id="JWyXyakCNRZdzn6df_iQ-25" value="&lt;div&gt;Add game&lt;/div&gt;&lt;div&gt;to wishlist&lt;/div&gt;" style="shape=umlFrame;whiteSpace=wrap;html=1;pointerEvents=0;" vertex="1" parent="1">
          <mxGeometry x="30" y="250" width="800" height="760" as="geometry" />
        </mxCell>
      </root>
    </mxGraphModel>
  </diagram>
  <diagram id="77B_-YkMyOecfn41I8Ds" name="State">
    <mxGraphModel dx="2066" dy="1139" grid="1" gridSize="10" guides="1" tooltips="1" connect="1" arrows="1" fold="1" page="1" pageScale="1" pageWidth="850" pageHeight="1100" math="0" shadow="0">
      <root>
        <mxCell id="0" />
        <mxCell id="1" parent="0" />
      </root>
    </mxGraphModel>
  </diagram>
</mxfile>
